<svg width="268" height="513" viewBox="0 0 268 513" fill="none" xmlns="http://www.w3.org/2000/svg">
<path d="M19.7694 381.318V288.86L239.787 509.561L239.788 509.562C240.124 509.897 240.671 510.24 241.283 510.559C241.907 510.884 242.642 511.206 243.391 511.49C244.139 511.775 244.909 512.025 245.603 512.205C246.287 512.382 246.931 512.5 247.415 512.5H256.368C262.204 512.5 267.5 507.843 267.5 501.948V126.098C267.5 120.236 262.239 114.987 256.368 114.987H189.221C182.774 114.987 178.09 120.253 178.09 126.098V323.718L32.7273 184.093L145.025 17.4751L145.031 17.4667L145.036 17.4581C147.365 13.681 147.376 9.4425 145.611 6.13963C143.843 2.83136 140.314 0.5 135.658 0.5H62.915C60.2949 0.5 58.3763 1.22936 56.8932 2.26553C55.4227 3.29288 54.4024 4.60803 53.5624 5.72585L53.5552 5.73539L53.5485 5.74525L-23.8166 119.623L-101.182 5.74525L-101.188 5.73539L-101.196 5.72585C-102.906 3.44907 -105.834 0.5 -110.548 0.5H-183.291C-187.947 0.5 -191.477 2.83136 -193.244 6.13963C-195.009 9.4425 -194.998 13.681 -192.669 17.4581L-192.665 17.4651L-192.661 17.4719L-70.2322 202.139L-69.7949 495.804C-69.7949 495.805 -69.7949 495.805 -69.7949 495.805C-69.7945 501.667 -64.5339 506.915 -58.6633 506.915H7.92419C14.3716 506.915 19.0558 501.649 19.0558 495.804V385.046C19.514 383.868 19.7694 382.609 19.7694 381.318Z" stroke="#343434"/>
</svg>
