<svg width="337" height="271" viewBox="0 0 337 271" fill="none" xmlns="http://www.w3.org/2000/svg">
<path fill-rule="evenodd" clip-rule="evenodd" d="M193.541 270.422C233.798 270.422 269.125 240.476 249.285 199.804C229.445 159.131 303.163 160.444 324.818 132.334C351.226 98.0518 343.578 -47.4697 174.046 41.2473C146.889 55.4587 77.1435 26.6271 54.0087 40.9328C26.7767 57.7721 -11.5372 92.2534 26.7767 127.575C45.6493 144.973 -22.0136 190.132 7.62141 230.582C36.5378 270.052 56.8076 232.426 100.832 240.476C144.857 248.527 163.643 270.422 193.541 270.422Z" fill="#979797"/>
<path d="M149.058 202.284C149.058 202.284 158.469 197.857 161.982 194.777C165.496 191.697 169.864 184.046 169.864 184.046C169.864 184.046 217.842 218.695 249.125 213.753C256.333 212.614 270.378 207.823 271.273 199.381C273.719 176.331 239.882 170.44 247.273 158.751C251.785 151.615 265.8 162.235 265.8 162.235L323.933 190.829C323.933 190.829 303.85 240.334 255.112 242.318C195.159 244.758 149.058 202.284 149.058 202.284Z" fill="white"/>
<path fill-rule="evenodd" clip-rule="evenodd" d="M102.969 8.40866C102.423 8.19446 99.4929 4.60659 95.773 3.95359C94.0826 3.65685 95.6168 5.80931 93.7564 5.82868C88.2156 5.88637 79.2112 4.8454 77.5431 5.82868C76.3034 6.55715 79.0337 9.10204 77.5431 9.21888C63.48 10.3212 42.0256 24.3627 37.3709 31.175C35.8895 33.3429 47.8704 29.6647 45.9615 30.7365C43.819 31.9394 41.4428 39.8162 40.0221 45.8997C39.0385 50.0889 38.4193 55.4803 38.2007 61.3452C38.0185 66.4087 38.0914 67.2466 38.82 70.0151C39.6578 73.1115 40.3135 74.0222 41.4428 73.5851C41.8435 73.4394 42.0256 72.8929 42.0256 71.8729C42.0256 71.0715 42.4628 68.6673 43.0092 66.518L43.9563 62.6566L44.357 64.2595C44.867 66.1173 47.8541 71.8729 50.5498 76.0622C50.6952 76.2845 51.3207 76.0017 51.8848 74.6383C52.3988 73.3959 52.1902 71.4111 53.0634 69.2839C55.0524 64.4384 58.9578 58.1385 63.48 53.0955C70.1633 45.6425 72.3807 37.0171 78.6457 30.0932C90.3373 17.1719 105.011 9.21051 102.969 8.40866Z" fill="white"/>
<path fill-rule="evenodd" clip-rule="evenodd" d="M46.1276 32.4946C44.2521 34.0027 41.4681 46.2357 41.4203 46.4402C40.4368 50.6294 39.4887 65.1771 40.4578 67.9314C41.4269 70.6857 44.1406 60.7571 44.1406 60.7571C44.1406 60.7571 48.2423 71.4079 51.8666 74.328C52.0214 74.4528 47.5586 61.1508 46.1276 53.3854C44.2385 43.1346 47.195 31.6363 46.1276 32.4946Z" fill="#E7EAEE"/>
<path fill-rule="evenodd" clip-rule="evenodd" d="M116.033 246.737C119.53 245.972 125.43 243.308 127.69 242.397C129.949 241.486 136.833 231.765 139.31 220.8C141.095 212.713 142.006 201.202 140.986 199.271C140.835 198.997 140.284 193.762 141.751 195.472C145.012 199.271 148.882 205.235 161.094 194.548C164.42 191.637 168.829 187.88 167.668 184.558C164.42 175.265 150.341 156.553 148.195 155.136C145.629 153.441 132.658 154.881 113.355 149.184C91.4646 142.723 82.3492 123.697 73.7826 126.173C66.8547 128.176 50.2561 140.485 46.0903 148.28C26.4239 185.078 50.2561 210.863 55.6835 218.269L60.9533 220.545L61.1354 225.244L61.3904 228.195C61.864 233.841 62.0461 234.351 64.5961 236.246C70.971 241.09 83.5388 245.608 94.9043 247.21C100.186 247.939 111.661 247.684 116.033 246.737Z" fill="white"/>
<path fill-rule="evenodd" clip-rule="evenodd" d="M63.0259 223.524L63.2809 226.475C63.7544 232.121 63.9366 232.631 66.4866 234.525C70.2473 237.383 76.1633 240.128 82.7163 242.227C87.2713 243.686 92.1341 244.833 96.7948 245.49C102.077 246.219 113.552 245.964 117.923 245.017C120.084 244.548 102.311 230.585 91.8405 234.525C83.7998 237.551 64.8482 214.472 72.5536 208.442C81.1975 201.678 65.3582 175 64.8482 169.209C64.3382 163.417 62.3297 162.033 62.2711 162.236C62.2125 162.439 62.2125 163.132 62.3702 164.802C63.0498 171.999 63.0259 223.524 63.0259 223.524Z" fill="#E7EAEE"/>
<path fill-rule="evenodd" clip-rule="evenodd" d="M60.6008 167.555C61.3655 167.406 62.1062 167.906 62.255 168.67C65.0044 182.795 76.6338 192.358 97.4289 197.358C118.348 202.388 132.596 202.117 140.104 196.748C140.738 196.294 140.265 200.176 139.801 200.473C134.904 203.614 118.256 208.299 98.3884 204.064C72.9857 198.65 61.0583 177.29 59.4855 169.209C59.3367 168.445 59.836 167.704 60.6008 167.555Z" fill="#FFB61D"/>
<path fill-rule="evenodd" clip-rule="evenodd" d="M50.0076 142.071C50.6838 141.684 75.9144 170.6 110.539 177.145C145.164 183.691 153.548 179.528 154.895 170.6C155.012 169.83 155.73 169.299 156.501 169.416C157.271 169.532 157.801 170.251 157.685 171.021C155.977 182.336 139.956 185.027 110.065 179.927C80.5494 174.89 60.3136 162.924 49.4837 143.996C49.0968 143.32 49.3313 142.458 50.0076 142.071Z" fill="#FFB61D"/>
<path fill-rule="evenodd" clip-rule="evenodd" d="M195.334 140.467C194.387 140.139 193.367 139.411 192.712 138.573L191.619 137.225L195.48 133.4C201.418 127.572 205.971 121.597 209.906 114.494C211.217 112.126 214.532 104.221 214.532 103.456C214.532 103.201 214.933 102.181 215.406 101.125C216.135 99.5948 216.681 99.012 218.248 98.1377C220.106 97.0448 222.218 96.6806 223.129 97.2998C224.878 98.4655 224.878 102.145 223.129 108.483C221.198 115.441 218.612 120.432 213.257 127.608C212.419 128.701 210.853 130.85 209.723 132.344C206.7 136.351 204.733 138.282 202.074 139.775C199.451 141.232 197.921 141.414 195.334 140.467ZM221.49 137.189L224.113 138.354C224.656 138.605 230.656 141.488 237.863 144.951C249.482 150.534 264.239 157.625 264.329 157.625C264.475 157.625 265.159 156.044 265.313 154.201C265.677 150.23 267.025 144.839 268.591 141.086C269.32 139.411 269.903 137.317 269.903 137.134C269.903 137.051 269.311 136.812 268.341 136.421C267.187 135.956 265.498 135.275 263.637 134.384C254.457 129.976 236.498 120.978 234.276 119.63C232.09 118.355 231.653 118.246 231.653 119.084C231.653 120.177 229.431 125.24 227.719 127.972C226.808 129.466 225.023 132.162 223.748 133.947L221.49 137.189ZM263.71 151.068C264.755 151.673 262.945 152.561 262.508 152.707C259.934 152.926 256.904 152.442 254.421 150.995C253.123 150.074 242.901 144.395 236.12 140.628C233.02 138.906 230.64 137.584 230.16 137.298C228.63 136.387 227.173 135.404 226.918 135.112C226.153 134.129 226.881 133.692 229.03 133.874C230.323 133.983 261.454 149.76 263.71 151.068ZM125.579 242.809L125.579 242.809C126.258 242.522 126.843 242.276 127.287 242.097C129.546 241.186 136.43 231.465 138.907 220.5C140.692 212.413 141.603 200.902 140.583 198.971C139.968 197.853 143.62 201.602 146.34 204.395L146.341 204.396L146.341 204.396L146.341 204.396L146.342 204.396L146.342 204.397L146.342 204.397L146.342 204.397L146.343 204.398C147.168 205.245 147.907 206.003 148.415 206.511C164.298 222.285 187.939 234.962 212.492 240.9C224.732 243.887 233.438 244.943 245.132 244.943C264.766 244.943 280.248 241.082 294.31 232.594C294.977 232.191 295.603 231.821 296.199 231.467L296.2 231.467L296.2 231.467C301.102 228.565 304.022 226.836 312.014 217.841C320.978 207.75 328.953 184.327 331.612 176.24C332.778 172.597 335.619 158.108 335.619 154.492C335.619 150.211 334.126 148.19 332.086 146.114C328.479 142.58 323.598 141.305 319.554 142.835L317.66 143.564L317.077 141.633C316.239 138.719 314.491 136.387 311.795 134.639C307.788 131.979 307.205 131.797 303.599 131.797C300.794 131.797 300.029 131.943 298.244 132.781L296.167 133.728L295.73 132.417C294.893 129.721 292.082 125.963 289.902 124.876C287.968 123.912 284.621 123.823 282.288 124.257C277.188 125.204 273.546 127.572 272.052 130.887C271.615 131.907 271.069 132.708 270.85 132.708C270.668 132.708 263.491 130.704 254.931 126.915C253.487 126.274 252.13 125.673 250.856 125.108C235.484 118.295 232.152 116.818 232.455 114.967C232.71 113.401 232.637 112.527 232.2 111.179C231.435 108.92 230.56 108.301 228.083 108.301C226.116 108.301 226.116 108.301 226.335 107.318C227.5 101.744 227.464 98.5384 226.225 96.4984C225.388 95.1506 224.404 94.6041 222.145 94.2763C220.834 94.0941 220.215 94.2034 218.758 95.0048C217.774 95.5148 216.936 95.8791 216.863 95.8063C216.791 95.7334 217.046 93.7299 217.446 91.362C220.433 73.8401 218.126 58.7432 210.512 42.7148C210.44 42.5621 210.356 42.3817 210.259 42.1753L210.258 42.1725C207.944 37.2033 198.637 17.2223 172.02 7.14011C170.817 6.68416 169.678 6.24328 168.583 5.81955L168.582 5.81932L168.581 5.81882L168.58 5.81841C159.513 2.309 153.486 -0.024024 138.944 0.000186657C122.644 0.027323 117.123 2.33159 106.377 7.24939C104.883 7.94153 103.572 8.34224 103.463 8.19652C103.353 8.01438 102.661 7.57725 101.969 7.21296C101.277 6.84868 99.7833 5.93798 98.6904 5.20941C95.5576 3.09658 93.6269 2.2223 92.6434 2.44087C91.5141 2.7323 91.5141 3.67943 92.6434 4.11657C93.1169 4.29871 93.6633 4.91799 93.8819 5.53727C94.3555 6.84868 94.9019 6.99439 95.2298 5.90155C95.3755 5.50084 95.594 5.20941 95.7033 5.28227C95.7448 5.303 95.8835 5.36795 96.0952 5.46705C96.6277 5.71632 97.6218 6.18167 98.6904 6.70297C100.184 7.43153 101.823 8.19653 102.26 8.37867C103.062 8.67009 102.807 8.88866 99.3461 10.9286C85.8313 18.87 74.83 31.2191 68.6736 45.2804C67.7265 47.3932 66.8886 48.7046 66.0144 49.4332C63.7922 51.291 59.4209 56.5731 58.4009 58.6495C57.8545 59.7788 56.6888 61.5274 55.7781 62.5473C54.9038 63.5673 53.9566 64.8787 53.6288 65.4252C53.3374 66.008 53.0459 66.4087 52.9367 66.3359C52.8638 66.2266 52.9731 64.4416 53.2281 62.3652C53.7745 57.5203 53.7745 56.2453 53.3374 56.136C52.6817 55.9538 51.7345 58.5038 51.3338 61.6731C51.0424 63.6038 50.9695 66.518 51.1517 69.5051L51.3702 74.2408L48.7838 70.0516C47.8942 68.6503 47.018 67.249 46.396 66.2541L46.3954 66.2532L46.3951 66.2526L46.3942 66.2512L46.3934 66.25C45.998 65.6175 45.7056 65.1498 45.5782 64.9516C44.631 63.5673 44.0846 61.4909 44.4853 60.7988C44.7039 60.3981 44.6675 60.2159 44.3032 60.2159C43.5382 60.2159 42.0446 62.6566 41.0611 65.4616C40.5875 66.773 40.1139 67.8659 39.9682 67.8659C39.4218 67.8659 39.6768 54.8246 40.2597 50.6353C41.4618 42.3661 44.631 32.1663 46.0517 32.1663C46.3432 32.1663 46.5982 32.0205 46.5982 31.802C46.5982 31.1463 45.651 31.4013 44.886 32.2391C43.1739 34.0969 40.9154 39.8162 39.4947 45.8997C38.5111 50.0889 37.8918 55.4803 37.6733 61.3452C37.4911 66.4087 37.564 67.2466 38.2925 70.0151C39.1304 73.1115 39.7861 74.0222 40.9154 73.5851C41.3161 73.4394 41.4982 72.8929 41.4982 71.873C41.4982 71.0715 41.9353 68.6673 42.4818 66.518L43.4289 62.6566L43.8296 64.2595C44.3396 66.1173 47.3267 71.873 50.0224 76.0622C51.8802 78.9036 51.9167 79.0857 52.5359 83.53C52.8638 86.0435 53.8838 92.1573 56.2516 101.562C58.3437 109.872 70.1051 118.115 73.0418 120.173C73.4288 120.444 73.6625 120.608 73.7007 120.65C74.065 121.051 74.575 121.27 74.8664 121.16C75.1943 121.051 75.3764 121.197 75.3764 121.597C75.3764 121.962 75.6314 122.435 75.9228 122.654C76.2871 122.909 76.5421 123.892 76.615 125.605C76.7971 129.029 79.3471 135.586 81.3142 137.735C82.5892 139.119 85.2484 139.702 88.1991 139.192C90.1298 138.901 90.6762 138.682 90.4941 138.245C90.3848 137.954 91.0769 138.318 92.0241 139.047C103.098 147.498 114.318 152.561 126.922 154.747C131.804 155.585 139.891 156.058 144.298 155.731C148.196 155.476 148.196 155.476 148.014 156.241C147.759 157.261 148.087 157.88 153.442 166.95C157.704 174.127 158.068 174.6 162.804 179.445C172.858 189.827 183.823 197.878 196.245 204.107C207.938 209.936 226.608 214.781 243.675 216.311C260.741 217.841 272.999 202.177 272.963 198.169C272.89 192.669 272.125 189.062 270.267 185.565C268.446 182.177 267.244 181.012 261.779 177.369C255.696 173.325 251.944 170.01 249.467 166.477C247.9 164.255 247.317 161.741 247.317 160.393C247.317 159.519 248.447 157.552 250.122 157.151C251.652 156.751 251.944 156.787 253.656 157.625C254.676 158.098 257.335 159.337 259.521 160.393C261.743 161.413 263.892 162.433 264.329 162.652C265.618 163.01 266.163 165.533 266.458 166.9C266.524 167.205 266.578 167.453 266.624 167.606C267.134 169.5 269.548 171.946 271.105 172.779C273.839 174.241 280.577 174.437 282.435 172.433C282.908 171.923 284.478 171.296 284.802 171.486C285.125 171.676 286.295 173.253 286.295 174.528C286.332 176.713 287.461 178.717 289.865 180.72C294.419 184.509 297.952 185.42 301.522 183.744C303.38 182.87 304.903 182.528 304.903 182.528C304.903 182.528 306.422 184.466 306.513 185.128C307.228 190.304 314.891 192.474 316.931 192.692C317.399 192.739 318.309 192.539 319.233 192.336C320.469 192.064 321.73 191.787 321.995 192.086C322.515 192.673 313.289 207.932 312.014 209.863C299.883 228.077 276.278 239.224 247.39 240.39C228.63 241.155 205.571 235.909 185.572 226.365C172.785 220.208 161.456 212.668 149.326 202.104C147.213 200.282 144.772 198.206 143.898 197.477C143.023 196.785 140.947 194.417 139.344 192.232C136.649 188.589 135.119 187.277 135.119 188.516C135.119 189.062 136.867 192.414 138.871 195.729C139.672 197.04 140.182 197.951 140 197.805C139.818 197.659 139.235 200.282 138.689 203.634C136.904 214.38 133.953 224.981 130.966 231.574C129.327 235.144 126.183 237.81 125.236 238.539C121.739 241.198 116.504 242.393 109.255 243.122C100.075 244.032 86.5598 241.993 76.2507 238.131C73.5186 237.111 66.4879 234.16 66.0144 233.833C65.986 233.804 65.8248 232.757 65.5997 231.297L65.5997 231.296L65.5997 231.296L65.5997 231.296L65.5995 231.295L65.5994 231.294L65.5993 231.294L65.5993 231.294C65.5358 230.881 65.4672 230.436 65.3951 229.971C64.0837 220.973 62.2623 186.33 62.2623 170.302C62.2623 163.672 62.1894 162.215 61.7523 162.215C60.8416 162.215 60.4773 163.089 60.0766 166.222C59.1659 173.362 59.348 210.628 60.3316 218.46L60.5501 220.245L59.3116 219.553C57.4173 218.46 50.2045 211.138 47.691 207.75C45.5631 204.854 44.2984 201.144 43.3521 198.369L43.352 198.369C43.132 197.723 42.9292 197.129 42.7368 196.606C37.4547 181.962 39.3125 165.53 46.5982 150.74C52.7909 138.136 60.4044 131.142 71.5514 127.754C73.3729 127.207 74.9757 126.624 75.1578 126.479C75.85 125.823 71.4057 126.151 68.965 126.916C61.0237 129.357 52.7181 136.023 47.0717 144.547C39.1304 156.496 35.5604 174.127 38.074 189.172C38.6568 192.742 41.0246 200.464 41.6804 201.011C41.7384 201.069 42.038 201.697 42.4912 202.648C43.7441 205.276 46.1706 210.367 47.9096 212.668C50.0224 215.546 56.3973 221.811 59.0566 223.742L60.7323 224.944L60.9873 227.895C61.4608 233.541 61.643 234.051 64.193 235.945C70.5679 240.79 83.1356 245.307 94.5012 246.91C99.7833 247.639 111.258 247.384 115.63 246.437C118.44 245.822 122.801 243.981 125.579 242.809ZM238.757 212.231C217.592 210.373 192.019 200.282 173.514 184.69C165.718 178.097 155.591 165.275 151.584 158.171C150.746 156.714 150.127 156.022 149.398 155.84C148.633 155.621 149.289 155.403 152.422 154.893C165.645 152.634 178.505 147.134 188.887 139.302L190.417 138.172L190.854 139.229C191.837 141.597 195.626 144.001 198.431 144.001C199.56 144.001 203.349 142.289 205.644 140.722L207.21 139.666L208.485 140.941C209.651 142.106 209.869 142.179 212.055 142.179C214.568 142.179 217.592 141.05 219.268 139.447L220.178 138.609L222.765 140.322C224.149 141.305 228.01 143.454 231.325 145.166C236.28 147.716 241.525 150.667 246.516 153.727L247.317 154.237L246.552 155.257C245.751 156.35 244.258 158.426 244.258 161.596C244.258 165.166 247.97 171.58 255.077 175.985C260.659 179.445 270.267 186.252 269.903 196.202C269.859 197.404 268.519 200.392 266.734 203.087C265.568 204.799 262.326 207.349 259.375 208.843C254.348 211.356 245.496 212.814 238.757 212.231ZM44.5217 48.7047C45.5053 48.9232 46.161 49.2511 46.0153 49.3968C45.5417 49.8704 43.0282 49.6518 42.4453 49.069C41.5346 48.1947 41.7532 47.5754 43.0282 47.3204C43.6839 47.2111 44.6675 46.6647 45.2139 46.1183C45.7603 45.5719 46.2339 45.3169 46.2339 45.499C46.2339 45.9726 44.4125 47.6483 43.5018 48.0125C42.9189 48.2675 43.1011 48.3768 44.5217 48.7047ZM59.0202 49.2875C60.0766 48.7047 59.858 48.3039 58.6195 48.4861C57.3809 48.6682 57.3081 48.5225 58.1095 47.284C58.4373 46.8104 58.6195 46.1183 58.5466 45.754C58.4373 45.2804 58.1823 45.499 57.5995 46.6647C57.1623 47.5025 56.5431 48.1947 56.2516 48.1947C55.3409 48.1947 55.2681 48.9232 56.1423 49.2511C57.2716 49.7246 58.1459 49.7246 59.0202 49.2875ZM46.416 29.3977C45.5417 29.5434 42.8096 30.6363 40.4054 31.8384C37.9647 33.0041 35.8883 33.9877 35.7426 33.9512C32.0269 33.5505 37.1997 27.3577 46.5982 21.0192C55.5959 14.9357 61.6794 11.7301 67.3258 10.0908C70.8593 9.0708 74.83 8.92509 75.9593 9.76294C76.5785 10.2365 76.36 10.2729 73.6643 10.3094C67.8358 10.3094 61.0966 13.2965 50.1317 20.6185C44.4489 24.4071 37.8554 29.8349 37.8554 30.7091C37.8554 30.8913 38.9118 30.527 40.2232 29.9441C43.0282 28.6692 45.906 28.0134 47.181 28.3049C48.5289 28.6692 48.2374 29.1427 46.416 29.3977ZM60.5137 32.5305C63.938 31.8384 64.0837 31.802 64.0837 31.4377C64.0837 31.2556 62.7723 31.0734 61.133 31.0006L58.1823 30.8913L60.9144 27.7949C62.408 26.0828 64.1566 24.3706 64.7758 23.9699C66.1237 23.0956 66.1965 22.4764 65.1037 22.1121L64.2658 21.8571L65.1765 21.5292C65.6865 21.3471 66.6337 21.2742 67.2894 21.3835C68.2729 21.5292 68.4915 21.4564 68.3822 20.9464C68.2729 20.4364 67.8722 20.3271 66.0872 20.3635C60.878 20.4364 58.6559 21.8207 62.7359 22.4764C63.8651 22.6585 64.8123 22.9499 64.8123 23.1321C64.8123 23.2778 64.6301 23.4235 64.4116 23.4235C63.7194 23.4235 57.8545 29.3613 57.1259 30.8184C55.9966 32.9677 56.6159 33.2955 60.5137 32.5305ZM84.5563 18.3964C83.4999 18.4693 83.2449 18.6514 83.3178 19.1614L83.329 19.2356C83.3699 19.5051 83.3934 19.6599 83.333 19.7069C83.2515 19.7703 83.0171 19.6374 82.4662 19.3249L82.3706 19.2707C81.6785 18.9064 81.6056 18.7243 82.0064 18.4328C82.2614 18.2143 82.9535 17.8864 83.4999 17.7771L84.5199 17.5221L83.7549 16.7207C83.3542 16.2471 83.1356 15.81 83.2449 15.6643C83.5363 15.3729 87.1063 15.7736 87.6163 16.1743C87.8349 16.3564 88.1627 16.32 88.3813 16.1014C88.8913 15.5914 89.5834 15.9922 89.5834 16.7936C89.5834 17.2307 89.4741 17.2671 89.1463 16.9393C88.8549 16.6479 88.5999 16.6479 88.272 16.9029C87.9806 17.1579 87.762 17.1579 87.5799 16.8664C87.4706 16.6843 86.7785 16.5021 86.0499 16.5021C85.3777 16.5021 85.0599 16.5021 84.9951 16.6302C84.9369 16.7451 85.0822 16.963 85.3578 17.3764C85.9388 18.2843 85.9044 18.2871 84.5687 18.3954L84.5563 18.3964ZM79.0192 8.70651C79.0192 8.23294 78.5821 7.39509 78.0357 6.84867L77.0157 5.82868L82.4799 6.04725C85.5034 6.19297 88.9277 6.52082 90.1298 6.84867C91.3319 7.1401 92.7162 7.35867 93.2262 7.35867C93.9912 7.35867 93.8455 7.21295 92.4248 6.44796C89.9477 5.17298 86.7784 4.5537 80.6949 4.11656C73.4093 3.60657 69.7301 4.2987 70.4222 6.12011C70.5315 6.48439 71.1143 6.66653 71.9886 6.66653C73.7736 6.66653 76.6878 7.72295 77.6714 8.70651C78.7278 9.76293 79.0192 9.76293 79.0192 8.70651ZM61.2423 105.168C64.193 108.957 68.0908 113.255 69.9122 114.712C71.0051 115.587 71.9522 116.315 72.0251 116.315C72.0615 116.315 71.2601 114.64 70.2401 112.6C66.1237 104.403 63.7194 96.2434 62.5902 86.8449C62.3352 84.7685 61.9344 83.02 61.4973 82.2914C60.623 80.8343 60.623 78.94 61.5337 77.155C62.0073 76.2079 62.2623 75.0058 62.2623 73.6944V71.6908L60.5137 73.5122C58.8016 75.2972 57.1624 76.0258 57.1624 74.9329C57.1624 74.1315 59.858 70.2701 61.2787 69.068C62.408 68.1209 62.5537 67.793 62.918 64.9516C63.173 63.2395 63.7559 60.2159 64.2294 58.2124C64.7394 56.2088 65.0308 54.4967 64.958 54.4239C64.703 54.1689 56.1424 64.0007 54.9767 67.1373C54.7207 67.8259 54.0295 69.0316 53.4831 69.7601L52.536 70.9762C52.536 70.9762 52.8302 72.6791 53.1553 74.8191C53.4837 76.9813 53.6378 78.4676 53.775 79.7915C53.9586 81.5625 54.1121 83.0426 54.6124 85.4607C55.1952 88.4478 55.7781 91.0342 55.9238 91.2163C56.0331 91.4349 56.5066 93.1106 56.9802 94.9684C58.0002 99.0848 59.7123 103.165 61.2423 105.168ZM209.068 139.629L208.303 138.864C208.303 138.864 221 122.733 223.275 116.789C225.011 112.253 226.033 110.967 227.411 110.967C228.182 110.967 228.812 111.143 229.103 111.58C229.613 112.345 230.105 113.292 229.449 116.534C228.356 121.78 226.68 125.24 221.653 132.708C220.488 134.42 218.994 136.314 218.338 136.97C216.808 138.391 213.366 139.848 211.363 140.176C210.088 140.358 209.723 140.285 209.068 139.629Z" fill="#00160A"/>
<path d="M309.937 175.265C314.469 162.917 313.783 160.287 312.997 160.029C312.997 160.029 311.267 161.013 310.502 163.089C309.081 166.987 304.218 177.187 302.397 179.008C300.247 181.158 300.247 181.158 298.062 181.158C295.876 181.158 289.572 177.866 288.714 174.621C287.341 169.43 293.253 151.396 293.399 150.376L292.415 149.684C291.76 150.303 283.231 176.167 272.016 169.428C270.731 168.656 268.009 165.02 267.79 163.089C266.576 157.479 272.146 137.863 273.093 133.833C273.941 130.227 278.354 126.88 283.782 126.88C292.124 126.88 291.003 134.172 294.74 136.741C296.396 137.88 299.117 135.815 299.956 135.659C304.655 134.784 306.456 135.802 309.901 138.537C312.56 140.647 314.528 144.824 316.693 146.296C317.896 147.113 319.173 145.996 319.591 145.786C321.305 144.925 324.982 145.567 326.002 146.296C327.498 146.948 331.162 150.47 331.741 152.519C334.364 161.804 326.08 182.388 322.952 186.249C317.775 192.641 305.405 187.613 309.937 175.265Z" fill="white"/>
<path fill-rule="evenodd" clip-rule="evenodd" d="M99.5193 139.303C109.35 145.511 119.488 149.565 131.041 150.677C140.155 151.538 152.443 150.354 161.269 147.484C168.696 145.08 178.743 138.42 185.452 132.787C198.477 121.88 206.693 104.842 210.281 86.7584C210.784 84.211 211.55 77.8074 211.514 71.4566C211.514 64.0652 208.261 43.8669 198.405 32.2206C178.077 8.20015 144.662 -2.62038 116.58 6.62506C106.449 9.96019 95.6632 16.0028 87.5184 23.8964C77.2567 33.907 69.6859 47.5414 66.672 61.4629C63.5146 76.1738 67.6218 93.7551 74.762 108.179C80.4669 119.661 89.8675 133.168 99.5193 139.303ZM195.319 95.9438C188.574 116.216 170.993 131.357 148.89 135.95C145.518 136.632 143.185 136.883 138.449 136.955C135.112 137.062 131.776 137.027 131.094 136.955C115.63 135.089 103.861 129.384 93.025 118.548C88.2888 113.776 86.2795 111.193 83.3374 106.098C78.7088 98.0248 76.2331 89.7724 75.4796 79.8336C72.8962 45.7833 97.2589 17.4021 131.56 14.4599C145.015 13.3117 159.942 17.4379 171.28 25.4751C175.478 28.4532 183.084 35.988 185.452 39.5042C186.421 40.9036 195.822 54.6457 197.472 62.5393C199.589 72.8011 198.764 85.6462 195.319 95.9438Z" fill="white"/>
<path fill-rule="evenodd" clip-rule="evenodd" d="M214.23 72.5479C214.23 96.9989 202.664 123.73 187.737 135.147C180.616 140.593 171.309 147.189 163.205 149.737C151.328 153.471 132.515 152.979 132.515 152.979C132.515 152.979 151.708 150.413 158.82 147.551C179.216 139.343 190.349 126.743 197.224 114.654C210.795 90.7901 214.23 71.9539 214.23 72.5479Z" fill="#E7EAEE"/>
<path fill-rule="evenodd" clip-rule="evenodd" d="M131.453 132.649C121.873 131.429 112.364 128.021 104.686 122.962C100.129 119.983 93.2403 112.987 89.9034 108C85.1314 100.823 81.9739 93.1451 80.4311 84.8927C79.3188 78.9007 79.3546 69.6795 80.4669 64.3334C81.6151 58.8796 83.0862 54.7175 85.7054 49.4431C88.7553 43.3435 91.9845 38.8584 96.8283 34.0146C105.081 25.7622 114.661 20.5237 126.071 18.0121C129.766 17.2227 143.15 16.5769 143.616 17.1868C143.724 17.3662 144.441 17.8327 145.195 18.2273C145.948 18.6579 147.958 20.1649 149.608 21.636C152.084 23.7888 153.196 25.1522 155.349 28.525C156.82 30.8213 158.004 32.9023 158.004 33.0817C158.004 33.4764 159.152 34.194 159.798 34.194C160.695 34.194 161.305 31.503 161.484 26.7668C161.592 24.1476 161.807 21.9948 161.951 21.9948C162.453 21.9948 167.979 25.0446 170.562 26.7668C175.621 30.1396 180.68 34.8757 184.412 39.8272C186.098 42.0518 186.349 42.6259 186.349 43.9893C186.349 45.2451 186.708 46.2139 187.82 48.1514C190.619 53.0311 192.808 59.1666 194.135 65.948C194.996 70.5047 194.996 79.116 194.099 83.888C191.66 97.0202 184.412 110.081 174.975 118.369C166.974 125.366 158.47 129.671 148.424 131.788C144.979 132.542 134.646 133.044 131.453 132.649ZM105.798 108.107C106.121 107.748 106.336 107.21 106.229 106.959C106.197 106.884 105.747 106.672 105.09 106.363L105.09 106.363C103.557 105.643 100.892 104.39 99.7366 103.084C95.1439 97.8454 93.4575 93.9345 92.417 85.8615C91.4124 78.0037 92.2564 72.6916 94.0675 64.154C94.951 59.9892 97.2992 56.549 98.7602 54.4087C99.7536 52.9534 100.337 52.0991 99.7704 52.0265C98.3711 51.8112 98.1558 51.9188 96.6847 53.3182C93.5273 56.3321 92.0921 58.7361 90.5851 63.3646C88.2529 70.6124 87.8022 90.1995 92.417 99.0295C97.0318 107.86 104.973 109.04 105.798 108.107ZM156.82 77.9678C156.211 83.5417 153.627 91.6023 150.613 95.1185C149.213 96.769 144.077 99.6035 139.741 99.0295C135.553 98.475 132.278 96.5179 129.479 92.3199C127.075 88.696 125.834 84.2972 124.994 78.7572C123.545 69.1906 129.874 58.0543 132.601 55.2916C135.364 52.457 137.337 51.4524 139.849 51.4165C142.288 51.4165 143.867 51.9547 146.343 53.7128C150.864 56.8703 158.004 67.1368 156.82 77.9678ZM108.453 48.2949C109.171 47.4696 109.279 47.0749 109.063 45.5321C108.92 44.0969 108.633 43.5228 107.879 42.9128C106.552 41.8364 104.901 41.8364 103.681 42.9846C102.82 43.8098 102.713 44.0969 102.82 46.0703C102.928 48.1872 103 48.3308 104.184 48.9766C105.762 49.8377 107.305 49.5866 108.453 48.2949ZM130.843 26.1568C124.384 30.7854 121.586 32.687 118.679 34.481C116.383 35.9162 115.665 35.9521 115.665 34.6604C115.665 33.9787 116.168 33.2252 117.459 32.0412L119.253 30.3907L115.773 29.9242C111.862 29.4219 108.059 28.3455 107.234 27.5203C105.87 26.1209 107.054 25.798 110.929 26.5156C112.651 26.8027 115.988 27.1615 118.356 27.2332L122.662 27.4126L125.784 25.1522C132.637 20.2007 139.741 17.4021 143.15 18.2632C145.267 18.7655 145.015 19.3396 142.611 19.6266C139.849 19.9496 138.162 20.8824 130.843 26.1568Z" fill="white"/>
<path d="M141.676 95.5513C141.676 95.3692 141.894 95.187 142.186 95.187C142.477 95.187 142.841 95.3692 142.951 95.5513C143.06 95.7699 142.841 95.9156 142.441 95.9156C142.004 95.9156 141.676 95.7699 141.676 95.5513Z" fill="white"/>
<path d="M143.861 95.2234C143.861 94.8227 144.772 94.4584 145.792 94.4584C146.593 94.4949 146.593 94.4949 145.901 95.0049C145.1 95.6241 143.861 95.7334 143.861 95.2234Z" fill="white"/>
<path d="M138.215 94.2763C138.106 93.9849 137.96 93.4749 137.851 93.1835C137.741 92.8192 137.924 92.637 138.397 92.637C138.798 92.637 139.126 92.8556 139.126 93.147C139.126 93.4384 139.235 93.912 139.344 94.2399C139.49 94.6406 139.381 94.8227 138.98 94.8227C138.652 94.8227 138.288 94.5677 138.215 94.2763Z" fill="white"/>
<path d="M140.146 93.3656C139.964 92.2728 140.364 91.9085 141.676 91.9085C142.076 91.9085 142.404 92.2728 142.55 92.8921C142.841 93.9485 142.368 94.4585 141.093 94.4585C140.51 94.4585 140.255 94.2035 140.146 93.3656Z" fill="white"/>
<path d="M136.43 93.5477C135.738 93.0013 135.738 93.0013 136.503 93.0013C136.976 93.0013 137.304 93.2199 137.304 93.5477C137.304 94.2034 137.304 94.2034 136.43 93.5477Z" fill="white"/>
<path d="M143.752 93.5113C143.279 93.0378 143.497 91.6171 144.08 91.3985C145.136 90.9978 145.61 91.1799 145.829 92.1271C145.974 92.6735 146.047 93.147 145.974 93.1835C145.683 93.5113 143.971 93.7299 143.752 93.5113Z" fill="white"/>
<path d="M146.994 92.7463C146.885 92.637 146.776 92.1634 146.776 91.7263C146.776 91.107 147.067 90.852 147.941 90.6699C148.706 90.5242 149.18 90.597 149.398 90.8885C149.763 91.4713 149.763 92.1999 149.435 92.382C148.779 92.7463 147.249 92.9649 146.994 92.7463Z" fill="white"/>
<path d="M134.754 91.617C134.754 91.1799 135.082 90.8156 135.556 90.7063C136.503 90.4513 136.466 90.4149 136.649 91.362C136.721 91.9084 136.539 92.127 135.774 92.1999C134.973 92.3091 134.754 92.1634 134.754 91.617Z" fill="white"/>
<path d="M137.523 91.6534C137.013 91.107 137.341 90.087 138.033 90.087C138.506 90.087 138.761 90.342 138.761 90.7792C138.761 91.4713 137.924 92.0541 137.523 91.6534Z" fill="white"/>
<path d="M139.709 90.5606C139.417 89.8685 140.036 89.3585 141.239 89.3585C141.785 89.3585 142.04 89.577 142.04 90.0506C142.04 90.4513 141.712 90.8156 141.239 90.9613C140.036 91.2527 139.964 91.2527 139.709 90.5606Z" fill="white"/>
<path d="M150.236 90.4513C150.346 90.2692 150.528 90.087 150.637 90.087C150.746 90.087 150.71 90.2692 150.601 90.4513C150.491 90.6699 150.309 90.8156 150.2 90.8156C150.091 90.8156 150.127 90.6699 150.236 90.4513Z" fill="white"/>
<path d="M142.987 89.832C142.696 89.1035 143.06 88.7392 144.226 88.557C144.881 88.4842 145.173 88.6299 145.246 89.1399C145.501 90.342 143.424 90.9977 142.987 89.832Z" fill="white"/>
<path d="M134.244 89.2128C133.916 88.0107 133.989 87.9014 134.936 87.9014C135.446 87.9014 135.847 88.0471 135.847 88.2292C135.847 88.4114 135.956 88.8121 136.066 89.1035C136.175 89.4678 135.956 89.6863 135.337 89.7956C134.645 89.9413 134.39 89.7956 134.244 89.2128Z" fill="white"/>
<path d="M146.411 88.8121C146.411 88.1564 146.666 87.8649 147.358 87.6828C148.378 87.4278 148.961 87.9378 148.961 89.1035C148.961 89.577 148.67 89.7228 147.686 89.7228C146.557 89.7228 146.411 89.6135 146.411 88.8121Z" fill="white"/>
<path d="M133.152 88.8121C133.042 88.5206 133.115 88.2656 133.297 88.2656C133.516 88.2656 133.662 88.5206 133.662 88.8121C133.662 89.1035 133.589 89.3585 133.516 89.3585C133.443 89.3585 133.297 89.1035 133.152 88.8121Z" fill="white"/>
<path d="M136.831 89.1035C136.321 88.6299 136.612 87.6099 137.268 87.4278C137.669 87.3185 138.069 87.3549 138.179 87.4642C138.616 87.8649 138.361 88.9213 137.814 89.1399C137.122 89.3949 137.122 89.3949 136.831 89.1035Z" fill="white"/>
<path d="M149.836 88.8485C149.435 87.7921 149.872 86.9906 150.892 86.8814C151.657 86.7721 151.876 86.9178 151.876 87.5006C151.876 88.7028 151.475 89.3585 150.746 89.3585C150.346 89.3585 149.945 89.1399 149.836 88.8485Z" fill="white"/>
<path d="M139.381 88.3749C138.944 87.9742 139.089 87.2456 139.709 87.0271C140.401 86.7721 141.858 87.5006 141.457 87.9013C140.947 88.3385 139.636 88.6663 139.381 88.3749Z" fill="white"/>
<path d="M142.55 87.4642C142.222 86.9542 143.388 86.08 144.335 86.08C144.772 86.08 144.954 86.2985 144.881 86.6992C144.736 87.4278 142.878 88.0106 142.55 87.4642Z" fill="white"/>
<path d="M132.569 87.2093C132.569 87.0271 132.459 86.6264 132.35 86.2986C132.241 85.9707 132.277 85.7157 132.496 85.7157C132.969 85.7157 133.334 87.1 132.896 87.3914C132.714 87.5007 132.569 87.4278 132.569 87.2093Z" fill="white"/>
<path d="M133.552 86.3713C133.334 85.5699 133.771 84.9871 134.609 84.9871C135.082 84.9871 135.556 86.4078 135.264 86.8813C134.864 87.5006 133.734 87.1363 133.552 86.3713Z" fill="white"/>
<path d="M136.102 86.5535C135.556 86.0071 135.884 84.6957 136.612 84.5135C137.159 84.3678 137.45 84.5499 137.741 85.2057C137.96 85.6792 138.069 86.1528 137.996 86.2257C137.632 86.5535 136.321 86.8085 136.102 86.5535Z" fill="white"/>
<path d="M145.938 86.5535C145.464 86.0799 145.683 85.7885 146.776 85.3878C147.686 85.0964 147.941 85.1328 148.124 85.5699C148.451 86.4442 146.63 87.282 145.938 86.5535Z" fill="white"/>
<path d="M149.143 85.7157C148.779 85.1328 149.289 84.6228 150.236 84.6228C151.366 84.6228 151.693 85.5699 150.673 85.8614C149.581 86.1528 149.398 86.1164 149.143 85.7157Z" fill="white"/>
<path d="M152.24 84.8414C152.24 84.2949 152.896 83.7121 153.187 84.0035C153.442 84.2585 152.932 85.3514 152.568 85.3514C152.386 85.3514 152.24 85.1328 152.24 84.8414Z" fill="white"/>
<path d="M132.095 84.3678C131.949 84.2585 131.84 83.785 131.877 83.3843C131.877 82.6921 131.913 82.6921 132.241 83.4935C132.605 84.3678 132.532 84.805 132.095 84.3678Z" fill="white"/>
<path d="M132.787 83.8214C132.459 82.5464 132.496 82.4371 133.443 82.4371C134.499 82.4371 135.155 83.785 134.354 84.295C133.516 84.805 133.042 84.6593 132.787 83.8214Z" fill="white"/>
<path d="M145.318 84.55C145.318 84.4407 145.501 83.8578 145.719 83.2021C146.229 81.745 147.358 81.6722 147.613 83.0929C147.723 83.6393 147.759 84.1128 147.723 84.1493C147.541 84.3678 145.318 84.6957 145.318 84.55Z" fill="white"/>
<path d="M135.374 83.6393C135.228 83.53 135.119 83.0929 135.119 82.6921C135.119 82.1093 135.228 82.0729 135.665 82.4371C135.956 82.6921 136.211 83.1293 136.211 83.3843C136.211 83.9307 135.774 84.0764 135.374 83.6393Z" fill="white"/>
<path d="M148.488 82.9107C148.269 81.7814 148.743 81.2714 149.872 81.4171C150.418 81.49 150.601 81.8178 150.601 82.6192C150.601 83.5299 150.455 83.7485 149.653 83.8214C148.852 83.9307 148.67 83.7485 148.488 82.9107Z" fill="white"/>
<path d="M152.058 83.0564C151.584 81.5993 151.73 81.1622 152.713 81.0529C153.588 80.9436 153.697 81.0529 153.697 82C153.697 82.8014 153.478 83.1293 152.932 83.275C152.531 83.3843 152.131 83.275 152.058 83.0564Z" fill="white"/>
<path d="M131.549 80.98C131.549 80.2879 131.622 79.9965 131.731 80.3608C131.804 80.6886 131.804 81.2715 131.731 81.6357C131.622 81.9636 131.549 81.6722 131.549 80.98Z" fill="white"/>
<path d="M132.459 81.4536C131.986 81.0165 132.204 79.5957 132.787 79.3772C133.625 79.0493 134.026 79.45 134.026 80.6522C134.026 81.4172 133.844 81.7086 133.37 81.7086C133.006 81.7086 132.569 81.5993 132.459 81.4536Z" fill="white"/>
<path d="M134.645 80.47C134.499 79.9236 134.426 79.3407 134.572 79.2315C134.936 78.8672 135.155 79.45 135.046 80.5064L134.936 81.5264L134.645 80.47Z" fill="white"/>
<path d="M146.411 80.215C146.411 79.8143 146.593 79.5957 146.776 79.705C146.994 79.8143 147.14 80.1785 147.14 80.47C147.14 80.7614 146.994 80.98 146.776 80.98C146.593 80.98 146.411 80.6521 146.411 80.215Z" fill="white"/>
<path d="M148.051 80.6886C147.541 80.1422 147.941 79.1586 148.779 78.94C149.836 78.685 149.872 78.685 150.2 79.7414C150.418 80.3971 150.273 80.5429 149.326 80.6886C148.743 80.7979 148.16 80.7614 148.051 80.6886Z" fill="white"/>
<path d="M151.402 79.9964C151.001 79.6322 151.111 78.43 151.511 78.43C151.73 78.43 151.876 78.2843 151.876 78.0658C151.876 77.8836 151.657 77.7015 151.366 77.7015C150.746 77.7015 150.236 75.9165 150.746 75.4065C151.402 74.7508 152.131 75.4429 152.568 77.2279C152.823 78.175 153.078 79.2679 153.187 79.6322C153.333 80.1057 153.187 80.2514 152.495 80.2514C152.021 80.2514 151.511 80.1422 151.402 79.9964Z" fill="white"/>
<path d="M153.369 78.0658C153.114 76.9729 152.458 74.7872 151.985 73.1844C151.256 70.853 151.183 70.2701 151.584 70.0151C151.839 69.833 152.167 69.6873 152.276 69.6873C152.677 69.6873 154.134 77.1551 153.988 78.6122L153.879 80.0693L153.369 78.0658Z" fill="white"/>
<path d="M131.184 77.8836C131.184 77.3008 131.257 77.0822 131.367 77.4465C131.439 77.7743 131.439 78.2843 131.367 78.5393C131.257 78.7579 131.184 78.5029 131.184 77.8836Z" fill="white"/>
<path d="M131.913 77.8108C132.059 76.5358 133.115 76.2444 133.407 77.4101C133.662 78.3572 133.734 78.2479 132.642 78.6122C131.877 78.8308 131.804 78.7579 131.913 77.8108Z" fill="white"/>
<path d="M147.286 77.4829C146.994 76.4264 147.613 75.8072 148.779 75.9529C149.653 76.0622 149.981 77.6286 149.253 78.1021C148.342 78.685 147.504 78.43 147.286 77.4829Z" fill="white"/>
<path d="M134.026 77.1915C134.026 76.5722 134.208 76.2443 134.609 76.2443C134.973 76.2443 135.119 76.4993 135.046 77.0457C134.864 78.2114 134.026 78.3207 134.026 77.1915Z" fill="white"/>
<path d="M130.784 75.6615C130.784 75.2608 130.893 75.1515 131.002 75.4429C131.111 75.6979 131.075 76.0257 130.966 76.135C130.856 76.2807 130.747 76.0622 130.784 75.6615Z" fill="white"/>
<path d="M131.476 75.5522C131.476 75.0057 131.694 74.7872 132.241 74.7872C132.751 74.7872 132.933 74.9693 132.86 75.4065C132.678 76.3536 131.476 76.4629 131.476 75.5522Z" fill="white"/>
<path d="M133.479 75.2244C133.224 74.5687 133.224 74.5687 134.317 74.2772C134.973 74.0587 135.119 74.1679 135.119 74.7144C135.119 75.5886 133.807 76.0258 133.479 75.2244Z" fill="white"/>
<path d="M146.666 74.7143C146.411 73.8036 146.885 73.3301 148.16 73.3301C148.779 73.3301 148.961 73.5486 148.961 74.2408C148.961 74.7872 148.743 75.1515 148.451 75.1515C148.16 75.1515 147.686 75.2608 147.395 75.3701C147.067 75.4793 146.812 75.2608 146.666 74.7143Z" fill="white"/>
<path d="M149.836 73.8765C149.544 73.1479 149.981 72.6015 150.819 72.6015C151.329 72.6015 151.511 72.8565 151.511 73.5122C151.511 74.1679 151.329 74.4229 150.783 74.4229C150.382 74.4229 149.945 74.1679 149.836 73.8765Z" fill="white"/>
<path d="M131.112 73.3665C131.112 72.6015 131.949 71.7272 132.314 72.1279C132.459 72.2372 132.569 72.7472 132.569 73.2208C132.569 73.8037 132.35 74.0587 131.84 74.0587C131.367 74.0587 131.112 73.8037 131.112 73.3665Z" fill="white"/>
<path d="M133.115 72.9294C132.824 72.0187 133.151 71.618 134.39 71.4358C135.519 71.2901 135.884 72.4922 134.9 73.2208C133.953 73.9129 133.37 73.8037 133.115 72.9294Z" fill="white"/>
<path d="M146.302 72.7108C146.047 72.4923 145.938 71.1444 146.156 71.1444C146.193 71.1444 146.739 70.9987 147.395 70.8166C148.488 70.4887 148.561 70.5251 148.524 71.5087C148.488 72.2373 148.269 72.6016 147.723 72.7473C146.739 73.0023 146.593 73.0023 146.302 72.7108Z" fill="white"/>
<path d="M144.954 71.8729C144.954 71.6179 145.064 71.5087 145.209 71.6179C145.319 71.7636 145.319 71.9822 145.209 72.1279C145.064 72.2372 144.954 72.1279 144.954 71.8729Z" fill="white"/>
<path d="M149.034 71.2901C149.143 70.6708 150.273 69.7601 150.528 70.0515C150.637 70.1608 150.819 70.598 150.928 71.0716C151.183 71.8001 151.074 71.873 150.054 71.873C149.18 71.873 148.925 71.7273 149.034 71.2901Z" fill="white"/>
<path d="M131.476 71.2537C131.476 71.0716 131.658 70.7073 131.84 70.4159C132.132 69.9787 132.204 70.0151 132.204 70.7073C132.204 71.1444 132.059 71.5087 131.84 71.5087C131.658 71.5087 131.476 71.3994 131.476 71.2537Z" fill="white"/>
<path d="M132.569 70.4522C132.569 69.4322 133.334 69.1044 133.916 69.8694C134.281 70.4158 134.281 70.5979 133.916 70.8529C133.152 71.3265 132.569 71.1808 132.569 70.4522Z" fill="white"/>
<path d="M143.643 69.9787C142.987 69.2501 142.987 69.2137 143.606 69.4323C143.971 69.578 144.444 69.6873 144.626 69.6873C144.808 69.6873 144.954 69.9423 144.954 70.2337C144.954 70.9987 144.444 70.9258 143.643 69.9787Z" fill="white"/>
<path d="M135.811 69.9422C134.244 68.7401 134.026 66.0444 135.483 66.0444C136.466 66.0444 137.377 67.5744 137.231 68.9951C137.122 70.3065 136.685 70.598 135.811 69.9422Z" fill="white"/>
<path d="M145.792 70.1608C145.938 70.0515 146.156 70.0515 146.302 70.1608C146.411 70.3065 146.302 70.4158 146.047 70.4158C145.792 70.4158 145.683 70.3065 145.792 70.1608Z" fill="white"/>
<path d="M151.293 68.7401C151.402 68.4123 151.511 68.0844 151.511 68.0116C151.511 67.9387 151.693 67.8658 151.876 67.8658C152.094 67.8658 152.24 68.1937 152.24 68.5944C152.24 69.0315 151.985 69.3229 151.657 69.3229C151.256 69.3229 151.147 69.1408 151.293 68.7401Z" fill="white"/>
<path d="M132.204 68.6309C132.204 67.793 132.969 66.4088 133.406 66.4088C134.171 66.4088 133.625 68.7401 132.824 68.8858C132.496 68.9587 132.204 68.8494 132.204 68.6309Z" fill="white"/>
<path d="M140.401 68.2301L139.308 67.9752L140.291 67.7202C141.311 67.4287 142.04 67.6473 142.04 68.2666C142.04 68.6308 142.004 68.6308 140.401 68.2301Z" fill="white"/>
<path d="M139.126 66.4816C139.126 64.9881 139.964 64.7695 140.729 66.0809C141.239 66.9552 141.275 67.1373 140.801 67.1373C140.51 67.1373 140.036 67.2466 139.709 67.3559C139.271 67.538 139.126 67.3195 139.126 66.4816Z" fill="white"/>
<path d="M145.464 66.9916C143.825 66.263 142.769 64.3323 142.769 62.0374C142.769 60.3981 142.914 59.9974 143.898 59.0867C144.517 58.5038 145.136 58.0303 145.319 58.0303C146.12 58.0303 149.071 60.8352 150.054 62.5838L151.183 64.5873L149.981 65.8623C148.597 67.3195 147.067 67.7202 145.464 66.9916Z" fill="white"/>
<path d="M137.851 66.0445C137.741 65.8623 137.814 65.6802 137.996 65.6802C138.215 65.6802 138.397 65.8623 138.397 66.0445C138.397 66.263 138.324 66.4088 138.251 66.4088C138.142 66.4088 137.96 66.263 137.851 66.0445Z" fill="white"/>
<path d="M133.079 65.4616C133.188 65.1337 133.297 64.8059 133.297 64.733C133.297 64.6601 133.625 64.5873 134.026 64.5873C134.936 64.5873 134.973 65.1701 134.062 65.6802C133.079 66.1902 132.824 66.1537 133.079 65.4616Z" fill="white"/>
<path d="M135.956 65.0244C135.119 64.9152 134.864 64.4416 135.41 64.1137C135.556 64.0044 136.211 63.8223 136.867 63.6766C137.851 63.458 138.033 63.5309 138.033 64.1502C138.033 64.9152 137.268 65.243 135.956 65.0244Z" fill="white"/>
<path d="M138.761 63.7859C138.761 63.3487 138.798 63.0937 138.871 63.1666C138.907 63.2394 139.199 63.6037 139.454 63.968C139.891 64.478 139.854 64.5873 139.344 64.5873C138.98 64.5873 138.761 64.2959 138.761 63.7859Z" fill="white"/>
<path d="M133.662 63.5309C133.662 63.3123 133.844 63.0573 134.026 62.948C134.244 62.8387 134.39 62.9845 134.39 63.2759C134.39 63.6037 134.244 63.8587 134.026 63.8587C133.844 63.8587 133.662 63.713 133.662 63.5309Z" fill="white"/>
<path d="M135.009 62.9845C134.718 62.2559 137.304 61.4545 137.741 62.1467C138.069 62.7295 137.741 62.9845 136.357 63.2759C135.519 63.458 135.155 63.3852 135.009 62.9845Z" fill="white"/>
<path d="M138.434 61.8188C138.434 61.4181 138.543 61.3088 138.652 61.6002C138.761 61.8552 138.725 62.183 138.616 62.2923C138.506 62.438 138.397 62.2195 138.434 61.8188Z" fill="white"/>
<path d="M135.337 61.2359C135.774 60.4345 137.049 59.1231 137.377 59.1231C137.741 59.1231 137.778 60.8352 137.414 61.0538C137.231 61.1267 136.649 61.3088 136.102 61.4545C135.301 61.6367 135.119 61.6002 135.337 61.2359Z" fill="white"/>
<path d="M138.251 60.3981C137.851 59.3052 138.033 58.8316 138.907 58.6859C139.818 58.5038 139.818 58.5038 139.235 59.6331C138.506 61.0902 138.543 61.0902 138.251 60.3981Z" fill="white"/>
<path d="M138.033 58.2124C138.033 58.1395 138.761 57.6296 139.672 57.1196C140.765 56.4638 141.53 56.2453 142.076 56.391C142.732 56.6096 142.55 56.7553 140.947 57.5203C139.162 58.3217 138.033 58.6131 138.033 58.2124Z" fill="white"/>
<path d="M158.25 25.937C157.267 24.5163 155.191 22.2214 153.697 20.8371C152.203 19.4528 151.22 18.3235 151.511 18.3235C152.313 18.3235 158.433 19.9992 159.963 20.655C161.238 21.2014 161.274 21.2742 160.946 22.4035C160.764 23.0592 160.618 24.6985 160.618 26.0463C160.618 27.4306 160.509 28.5234 160.363 28.5234C160.181 28.5234 159.27 27.3577 158.25 25.937Z" fill="white"/>
<path d="M84.1191 136.278C82.6256 135.513 82.2977 135.076 80.4035 131.324C77.6714 126.005 77.5985 124.767 80.1849 127.79C81.2049 128.992 83.5727 131.469 85.4306 133.291C88.5998 136.351 88.7455 136.569 87.6891 136.424C86.9241 136.314 86.6327 136.387 86.8148 136.679C87.252 137.334 85.8677 137.152 84.1191 136.278Z" fill="white"/>
<path fill-rule="evenodd" clip-rule="evenodd" d="M145.696 202.647C145.394 201.929 145.731 201.102 146.449 200.799L147.234 200.466C154.864 197.201 159.244 195.24 162.22 192.126C165.196 189.012 165.552 184.437 166.111 181.654C166.265 180.89 167.994 182.231 168.758 182.385C169.522 182.538 170.017 183.282 169.864 184.046C169.191 187.392 167.381 190.583 164.467 193.611C161.562 196.63 155.939 199.865 147.544 203.4C146.826 203.702 145.998 203.365 145.696 202.647Z" fill="#00160A"/>
<path fill-rule="evenodd" clip-rule="evenodd" d="M180.203 57.2985C180.872 56.8999 181.738 57.1196 182.137 57.7891C186.127 64.4925 188.265 72.1553 188.265 80.1277C188.265 104.281 168.685 123.861 144.532 123.861C138.114 123.861 131.889 122.476 126.189 119.839C125.482 119.512 122.81 116.907 125.501 117.966C128.191 119.026 138.6 121.404 144.607 121.404C167.202 121.404 183.186 102.722 183.186 80.1277C183.186 72.6668 180.203 66.0444 179.712 59.2323C179.655 58.4427 179.533 57.697 180.203 57.2985Z" fill="#00160A"/>
<path fill-rule="evenodd" clip-rule="evenodd" d="M40.4864 164.07C40.985 163.471 41.8745 162.261 42.4732 162.76C44.9291 164.806 47.5499 167.176 50.3532 167.633C53.2704 168.109 56.7312 168.109 60.7311 167.625C61.5046 167.531 62.2075 168.083 62.3011 168.856C62.3948 169.629 61.8436 170.332 61.0702 170.426C56.8225 170.94 53.1002 170.94 49.8988 170.418C46.5836 169.877 43.5005 168.416 40.6674 166.057C40.0688 165.558 39.9877 164.668 40.4864 164.07Z" fill="#00160A"/>
<path d="M70.4396 114.712C68.6182 113.255 64.7204 108.957 61.7697 105.168C60.2397 103.165 58.5276 99.0848 57.5076 94.9684C57.0341 93.1106 56.5605 91.4349 56.4512 91.2163C56.3055 91.0342 55.7226 88.4478 55.1398 85.4607C54.2655 81.235 54.4504 79.8737 53.6827 74.8191C53.3576 72.6791 53.0634 70.9762 53.0634 70.9762L54.0105 69.7601C54.5569 69.0316 55.2481 67.826 55.5041 67.1373C56.6698 64.0007 65.2304 54.1689 65.4854 54.4239C65.5582 54.4967 65.2668 56.2089 64.7568 58.2124C64.2833 60.216 63.7004 63.2395 63.4454 64.9516C63.0811 67.793 62.9354 68.1209 61.8061 69.068C60.3854 70.2701 57.6898 74.1315 57.6898 74.9329C57.6898 76.0258 59.329 75.2972 61.0412 73.5122L62.7897 71.6908V73.6944C62.7897 75.0058 62.5347 76.2079 62.0611 77.1551C61.1504 78.94 61.1504 80.8343 62.0247 82.2914C62.4619 83.02 62.8626 84.7685 63.1176 86.8449C64.2468 96.2434 66.6511 104.403 70.7675 112.6C71.7875 114.64 72.5889 116.315 72.5525 116.315C72.4796 116.315 71.5325 115.587 70.4396 114.712Z" fill="white"/>
<path fill-rule="evenodd" clip-rule="evenodd" d="M218.677 135.125L221.261 136.273C221.796 136.52 227.706 139.36 234.804 142.771C246.249 148.27 260.784 155.254 260.872 155.254C261.016 155.254 261.689 153.697 261.841 151.881C262.2 147.97 263.528 142.66 265.07 138.964C265.788 137.314 266.362 135.251 266.362 135.071C266.362 134.99 265.779 134.754 264.824 134.369C263.687 133.911 262.024 133.24 260.191 132.362C251.149 128.021 233.46 119.158 231.271 117.831C229.118 116.575 228.688 116.467 228.688 117.292C228.688 118.369 226.499 123.356 224.813 126.047C223.916 127.518 222.158 130.173 220.902 131.932L218.677 135.125ZM260.262 148.795C261.291 149.392 259.509 150.266 259.078 150.41C256.543 150.625 253.559 150.148 251.113 148.723C249.834 147.817 239.766 142.223 233.088 138.513C230.035 136.817 227.69 135.514 227.217 135.232C225.71 134.335 224.275 133.367 224.024 133.08C223.27 132.111 223.988 131.68 226.105 131.86C227.377 131.968 258.04 147.507 260.262 148.795Z" fill="white"/>
<path d="M195.862 140.467C194.915 140.139 193.895 139.411 193.239 138.573L192.146 137.225L196.007 133.4C201.945 127.572 206.317 121.202 210.251 114.098C211.562 111.73 215.46 102.181 215.934 101.125C216.662 99.5948 217.209 99.0119 218.775 98.1377C220.633 97.0448 222.746 96.6805 223.656 97.2998C225.405 98.4655 225.405 102.145 223.656 108.483C221.726 115.441 219.139 120.432 213.784 127.608C212.947 128.701 211.38 130.85 210.251 132.344C207.227 136.351 205.26 138.281 202.601 139.775C199.978 141.232 198.448 141.414 195.862 140.467Z" fill="white"/>
<path d="M209.595 139.629L208.83 138.864C208.83 138.864 221.527 122.733 223.802 116.789C225.538 112.253 226.56 110.967 227.939 110.967C228.71 110.967 229.339 111.143 229.631 111.58C230.141 112.345 230.632 113.292 229.976 116.534C228.884 121.78 227.208 125.24 222.181 132.708C221.015 134.42 219.521 136.314 218.866 136.97C217.336 138.391 213.894 139.848 211.89 140.176C210.615 140.358 210.251 140.285 209.595 139.629Z" fill="white"/>
<path fill-rule="evenodd" clip-rule="evenodd" d="M230.922 122.761C231.657 121.08 232.181 119.614 232.181 119.084C232.181 118.246 232.618 118.355 234.803 119.63C237.026 120.978 254.985 129.976 264.165 134.384C267.589 136.023 270.43 136.952 270.43 137.134C270.43 137.316 230.144 124.543 230.922 122.761Z" fill="#E7EAEE"/>
<path fill-rule="evenodd" clip-rule="evenodd" d="M106.285 124.84C101.659 121.816 94.6643 114.712 91.2765 109.649C86.4316 102.363 83.2259 94.5677 81.6595 86.1892C80.5302 80.1057 80.5667 70.7437 81.6959 65.3159C82.8616 59.7788 84.3552 55.5532 87.0144 50.1982C90.1108 44.0054 93.3894 39.4519 98.3072 34.5341C103.13 29.7115 81.6959 49.6548 87.0144 85.3377C91.2765 115.24 109.593 127.019 106.285 124.84Z" fill="#E7EAEE"/>
</svg>
